<?xml version="1.0" encoding="UTF-8"?>
<!DOCTYPE svg PUBLIC "-//W3C//DTD SVG 1.1//EN" "http://www.w3.org/Graphics/SVG/1.1/DTD/svg11.dtd">
<!-- Creator: CorelDRAW X5 -->
<svg xmlns="http://www.w3.org/2000/svg" xml:space="preserve" width="78mm" height="60mm" style="shape-rendering:geometricPrecision; text-rendering:geometricPrecision; image-rendering:optimizeQuality; fill-rule:evenodd; clip-rule:evenodd"
viewBox="0 0 7800 6000"
 xmlns:xlink="http://www.w3.org/1999/xlink">
 <defs>
  <style type="text/css">
   <![CDATA[
    .fil1 {fill:#CFD3CD;fill-rule:nonzero}
    .fil0 {fill:url(#id0)}
   ]]>
  </style>
  <linearGradient id="id0" gradientUnits="userSpaceOnUse" x1="5937.17" y1="6199.13" x2="1860.13" y2="-199.01">
   <stop offset="0" style="stop-color:#1A3B23"/>
   <stop offset="1" style="stop-color:#2B2A29"/>
  </linearGradient>
 </defs>
 <g id="Ebene_x0020_1">
  <metadata id="CorelCorpID_0Corel-Layer"/>
  <rect class="fil0" x="305" y="304" width="7188" height="5391"/>
  <path class="fil1" d="M3380 4282c0,-396 119,-740 295,-919 -116,-7 -285,-55 -393,-253 -307,-558 73,-1494 73,-1494l-33 -33c0,0 -474,588 -416,1878 36,813 420,1280 618,1469 -88,-178 -144,-404 -144,-648zm849 429c0,221 -95,400 -212,400 -117,0 -212,-179 -212,-400 0,-221 95,-400 212,-400 117,0 212,179 212,400zm-523 269c0,0 -367,-1372 245,-1372 702,0 392,1380 392,1380 0,0 13,-833 -367,-833 -294,0 -269,825 -269,825zm159 -1736c28,-8 56,-12 85,-12 24,0 49,3 72,8 45,-181 116,-604 -27,-1119 -192,-687 -461,-849 -461,-849l-57 57c0,0 441,572 441,1086 0,394 -36,705 -53,828zm288 56c81,57 153,146 212,259 77,-187 202,-641 2,-1332 -269,-929 -661,-1159 -661,-1159l-69 69c0,0 535,535 592,1180 41,460 -31,816 -75,982zm-276 -2411l-73 82c0,0 816,686 816,1902 0,433 -93,788 -151,968 34,134 53,283 53,441 0,313 -58,595 -161,787 236,-314 469,-908 529,-1836 90,-1380 -1012,-2343 -1012,-2343z"/>
 </g>
</svg>
